<?xml version="1.0" standalone="no"?>
<!DOCTYPE svg PUBLIC "-//W3C//DTD SVG 20010904//EN"
 "http://www.w3.org/TR/2001/REC-SVG-20010904/DTD/svg10.dtd">
<svg version="1.0" xmlns="http://www.w3.org/2000/svg"
 width="50pt" height="50pt" viewBox="0 0 800.000000 800.000000"
 preserveAspectRatio="xMidYMid meet">

<g transform="translate(0.000000,800.000000) scale(0.100000,-0.100000)"
fill="#ffffff" stroke="none">
<path d="M2180 7150 l0 -200 200 0 200 0 0 200 0 200 -200 0 -200 0 0 -200z"/>
<path d="M2720 6590 l0 -220 220 0 220 0 0 220 0 220 -220 0 -220 0 0 -220z"/>
<path d="M3263 6543 l-43 -4 0 -115 0 -114 -284 0 -284 0 -31 -26 -31 -26 0
-249 0 -249 -177 -2 -178 -3 -25 -90 -25 -90 0 -1515 0 -1515 27 -100 c33
-118 118 -294 187 -386 179 -237 474 -414 781 -470 109 -20 1431 -20 1540 0
307 56 602 233 781 470 69 92 154 268 187 386 l27 100 0 1515 0 1515 -27 100
c-33 118 -118 294 -187 386 -142 188 -360 342 -592 420 -190 63 -170 62 -919
64 -377 1 -704 0 -727 -2z m1343 -574 c235 -43 430 -219 485 -439 12 -46 14
-296 14 -1470 0 -1174 -2 -1424 -14 -1470 -55 -220 -250 -396 -485 -439 -82
-15 -1230 -15 -1312 0 -235 43 -430 219 -485 439 -12 46 -14 296 -14 1470 0
1174 2 1424 14 1470 54 214 237 386 465 435 79 17 1240 21 1332 4z"/>
<path d="M2070 6050 l0 -220 220 0 220 0 0 220 0 220 -220 0 -220 0 0 -220z"/>
<path d="M4000 1010 l0 -320 700 0 700 0 0 320 0 320 -700 0 -700 0 0 -320z"/>
</g>
</svg>
